<svg width="190" height="85" viewBox="0 0 190 85" fill="none" xmlns="http://www.w3.org/2000/svg">
<rect width="190" height="85" fill="#E94C8D"/>
<g filter="url(#filter0_d_12_196)">
<path d="M58.5707 53H55.9854L63.4627 32.6364H66.0082L73.4854 53H70.9002L64.815 35.858H64.6559L58.5707 53ZM59.5252 45.0455H69.9457V47.233H59.5252V45.0455ZM76.6573 53V32.6364H79.0039V40.1534H79.2028C79.3751 39.8883 79.6138 39.5502 79.9187 39.1392C80.2302 38.7216 80.6744 38.3504 81.2511 38.0256C81.8344 37.6941 82.6232 37.5284 83.6175 37.5284C84.9035 37.5284 86.0371 37.8499 87.0181 38.4929C87.9992 39.1359 88.7648 40.0473 89.315 41.2273C89.8652 42.4072 90.1403 43.7992 90.1403 45.4034C90.1403 47.0208 89.8652 48.4228 89.315 49.6094C88.7648 50.7893 88.0025 51.7041 87.0281 52.3537C86.0536 52.9967 84.93 53.3182 83.6573 53.3182C82.6763 53.3182 81.8907 53.1558 81.3008 52.831C80.7108 52.4995 80.2567 52.125 79.9386 51.7074C79.6204 51.2831 79.3751 50.9318 79.2028 50.6534H78.9244V53H76.6573ZM78.9641 45.3636C78.9641 46.517 79.1332 47.5346 79.4712 48.4162C79.8093 49.2912 80.3031 49.9773 80.9528 50.4744C81.6024 50.965 82.3978 51.2102 83.3391 51.2102C84.3202 51.2102 85.1388 50.9517 85.7951 50.4347C86.458 49.911 86.9551 49.2083 87.2866 48.3267C87.6246 47.4384 87.7937 46.4508 87.7937 45.3636C87.7937 44.2898 87.628 43.322 87.2965 42.4602C86.9717 41.5919 86.4779 40.9058 85.815 40.402C85.1587 39.8916 84.3335 39.6364 83.3391 39.6364C82.3846 39.6364 81.5825 39.8783 80.9329 40.3622C80.2833 40.8395 79.7927 41.509 79.4613 42.3707C79.1299 43.2259 78.9641 44.2235 78.9641 45.3636ZM99.9343 53.3182C98.5555 53.3182 97.3458 52.9901 96.305 52.3338C95.271 51.6776 94.4622 50.7595 93.8789 49.5795C93.3022 48.3996 93.0138 47.0208 93.0138 45.4432C93.0138 43.8523 93.3022 42.4635 93.8789 41.277C94.4622 40.0904 95.271 39.169 96.305 38.5128C97.3458 37.8565 98.5555 37.5284 99.9343 37.5284C101.313 37.5284 102.52 37.8565 103.554 38.5128C104.594 39.169 105.403 40.0904 105.98 41.277C106.563 42.4635 106.855 43.8523 106.855 45.4432C106.855 47.0208 106.563 48.3996 105.98 49.5795C105.403 50.7595 104.594 51.6776 103.554 52.3338C102.52 52.9901 101.313 53.3182 99.9343 53.3182ZM99.9343 51.2102C100.982 51.2102 101.843 50.9418 102.52 50.4048C103.196 49.8679 103.696 49.1619 104.021 48.2869C104.346 47.4119 104.508 46.464 104.508 45.4432C104.508 44.4223 104.346 43.4711 104.021 42.5895C103.696 41.7079 103.196 40.9953 102.52 40.4517C101.843 39.9081 100.982 39.6364 99.9343 39.6364C98.887 39.6364 98.0252 39.9081 97.3491 40.4517C96.6729 40.9953 96.1725 41.7079 95.8477 42.5895C95.5228 43.4711 95.3604 44.4223 95.3604 45.4432C95.3604 46.464 95.5228 47.4119 95.8477 48.2869C96.1725 49.1619 96.6729 49.8679 97.3491 50.4048C98.0252 50.9418 98.887 51.2102 99.9343 51.2102ZM120.062 46.7557V37.7273H122.408V53H120.062V50.4148H119.903C119.545 51.1903 118.988 51.8499 118.232 52.3935C117.477 52.9304 116.522 53.1989 115.369 53.1989C114.414 53.1989 113.566 52.9901 112.823 52.5724C112.081 52.1482 111.497 51.5118 111.073 50.6634C110.649 49.8082 110.437 48.7311 110.437 47.4318V37.7273H112.783V47.2727C112.783 48.3864 113.095 49.2746 113.718 49.9375C114.348 50.6004 115.15 50.9318 116.124 50.9318C116.708 50.9318 117.301 50.7827 117.904 50.4844C118.514 50.1861 119.024 49.7287 119.435 49.1122C119.853 48.4957 120.062 47.7102 120.062 46.7557ZM133.348 37.7273V39.7159H125.434V37.7273H133.348ZM127.74 34.0682H130.087V48.625C130.087 49.2879 130.183 49.785 130.375 50.1165C130.574 50.4413 130.826 50.66 131.131 50.7727C131.443 50.8788 131.771 50.9318 132.115 50.9318C132.374 50.9318 132.586 50.9186 132.752 50.892C132.917 50.8589 133.05 50.8324 133.15 50.8125L133.627 52.9205C133.468 52.9801 133.246 53.0398 132.961 53.0994C132.676 53.1657 132.314 53.1989 131.877 53.1989C131.214 53.1989 130.564 53.0563 129.928 52.7713C129.298 52.4863 128.775 52.0521 128.357 51.4688C127.946 50.8854 127.74 50.1496 127.74 49.2614V34.0682Z" fill="black"/>
</g>
<defs>
<filter id="filter0_d_12_196" x="53.9854" y="30.6364" width="85.6414" height="28.6818" filterUnits="userSpaceOnUse" color-interpolation-filters="sRGB">
<feFlood flood-opacity="0" result="BackgroundImageFix"/>
<feColorMatrix in="SourceAlpha" type="matrix" values="0 0 0 0 0 0 0 0 0 0 0 0 0 0 0 0 0 0 127 0" result="hardAlpha"/>
<feOffset dx="2" dy="2"/>
<feGaussianBlur stdDeviation="2"/>
<feComposite in2="hardAlpha" operator="out"/>
<feColorMatrix type="matrix" values="0 0 0 0 0 0 0 0 0 0 0 0 0 0 0 0 0 0 0.5 0"/>
<feBlend mode="normal" in2="BackgroundImageFix" result="effect1_dropShadow_12_196"/>
<feBlend mode="normal" in="SourceGraphic" in2="effect1_dropShadow_12_196" result="shape"/>
</filter>
</defs>
</svg>
